ffmpeg started on 2025-07-16 at 16:10:11
Report written to "D:\Convert\FFMetrics\reports\ssim_report-6.txt"
Log level: 32
Command line:
ffmpeg -hide_banner -nostdin -i "G:\\\xc0\xed\xe8\xec\xe5\\Shiza\\\xcb\xe5\xe3\xe5\xed\xe4\xe0 \xee \xc3\xf0\xe0\xed\xea\xf0\xe5\xf1\xf2\xe5\\[SHIZA Project] Grancrest Senki TV [07] [nDrOiDze & Lianna]_HEVC.mkv" -i "G:\\\xc0\xed\xe8\xec\xe5\\Shiza\\\xcb\xe5\xe3\xe5\xed\xe4\xe0 \xee \xc3\xf0\xe0\xed\xea\xf0\xe5\xf1\xf2\xe5\\[SHIZA Project] Grancrest Senki TV [07] [nDrOiDze & Lianna].mkv" -lavfi "[0:v]settb=AVTB,setpts=PTS-STARTPTS,format=pix_fmts=yuv420p10,fps=24000/1001,scale=1280:720:flags=bicubic[main];[1:v]settb=AVTB,setpts=PTS-STARTPTS,format=pix_fmts=yuv420p,fps=24000/1001,scale=1280:720:flags=bicubic[ref];[main][ref]ssim=eof_action=endall:stats_file='D\\:/Convert/FFMetrics/logs/ssim_logfile-6.txt'" -f null -
Input #0, matroska,webm, from 'G:\Аниме\Shiza\Легенда о Гранкресте\[SHIZA Project] Grancrest Senki TV [07] [nDrOiDze & Lianna]_HEVC.mkv':
  Metadata:
    ENCODER         : Lavf61.7.100
  Duration: 00:23:40.07, start: 0.000000, bitrate: 690 kb/s
  Stream #0:0(jpn): Video: hevc (Main 10), yuv420p10le(tv, bt709, progressive), 1280x720 [SAR 1:1 DAR 16:9], 23.81 fps, 23.81 tbr, 1k tbn (default)
      Metadata:
        title           : [SHIZA Project] Grancrest Senki TV [WEBRip]
        ENCODER         : Lavc61.19.100 libx265
        BPS             : 491588
        DURATION        : 00:23:40.062000000
        NUMBER_OF_FRAMES: 34048
        NUMBER_OF_BYTES : 87260808
        _STATISTICS_WRITING_APP: mkvpropedit v66.0.0 ('Josie') 64-bit
        _STATISTICS_WRITING_DATE_UTC: 2025-07-14 08:51:53
        _STATISTICS_TAGS: BPS DURATION NUMBER_OF_FRAMES NUMBER_OF_BYTES
  Stream #0:1(rus): Audio: aac (LC), 48000 Hz, stereo, fltp (default)
      Metadata:
        title           : nDrOiDze & Lianna
        ENCODER         : Lavc61.19.100 aac
        BPS             : 194547
        DURATION        : 00:23:40.032000000
        NUMBER_OF_FRAMES: 66562
        NUMBER_OF_BYTES : 34532948
        _STATISTICS_WRITING_APP: mkvpropedit v66.0.0 ('Josie') 64-bit
        _STATISTICS_WRITING_DATE_UTC: 2025-07-14 08:51:53
        _STATISTICS_TAGS: BPS DURATION NUMBER_OF_FRAMES NUMBER_OF_BYTES
Input #1, matroska,webm, from 'G:\Аниме\Shiza\Легенда о Гранкресте\[SHIZA Project] Grancrest Senki TV [07] [nDrOiDze & Lianna].mkv':
  Metadata:
    encoder         : libebml v1.3.4 + libmatroska v1.4.5
    creation_time   : 2018-02-24T17:11:39.000000Z
  Duration: 00:23:40.05, start: 0.000000, bitrate: 1945 kb/s
  Stream #1:0(jpn): Video: h264 (High), yuv420p(progressive), 1280x720 [SAR 1:1 DAR 16:9], 23.81 fps, 23.81 tbr, 1k tbn (default)
      Metadata:
        title           : [SHIZA Project] Grancrest Senki TV [WEBRip]
        BPS             : 1775514
        BPS-eng         : 1775514
        DURATION        : 00:23:40.045000000
        DURATION-eng    : 00:23:40.045000000
        NUMBER_OF_FRAMES: 34048
        NUMBER_OF_FRAMES-eng: 34048
        NUMBER_OF_BYTES : 315163855
        NUMBER_OF_BYTES-eng: 315163855
        _STATISTICS_WRITING_APP: mkvmerge v11.0.0 ('Alive') 64bit
        _STATISTICS_WRITING_APP-eng: mkvmerge v11.0.0 ('Alive') 64bit
        _STATISTICS_WRITING_DATE_UTC: 2018-02-24 17:11:39
        _STATISTICS_WRITING_DATE_UTC-eng: 2018-02-24 17:11:39
        _STATISTICS_TAGS: BPS DURATION NUMBER_OF_FRAMES NUMBER_OF_BYTES
        _STATISTICS_TAGS-eng: BPS DURATION NUMBER_OF_FRAMES NUMBER_OF_BYTES
  Stream #1:1(rus): Audio: aac (LC), 48000 Hz, stereo, fltp (default)
      Metadata:
        title           : nDrOiDze & Lianna
        BPS             : 165412
        BPS-eng         : 165412
        DURATION        : 00:23:40.053000000
        DURATION-eng    : 00:23:40.053000000
        NUMBER_OF_FRAMES: 66562
        NUMBER_OF_FRAMES-eng: 66562
        NUMBER_OF_BYTES : 29361872
        NUMBER_OF_BYTES-eng: 29361872
        _STATISTICS_WRITING_APP: mkvmerge v11.0.0 ('Alive') 64bit
        _STATISTICS_WRITING_APP-eng: mkvmerge v11.0.0 ('Alive') 64bit
        _STATISTICS_WRITING_DATE_UTC: 2018-02-24 17:11:39
        _STATISTICS_WRITING_DATE_UTC-eng: 2018-02-24 17:11:39
        _STATISTICS_TAGS: BPS DURATION NUMBER_OF_FRAMES NUMBER_OF_BYTES
        _STATISTICS_TAGS-eng: BPS DURATION NUMBER_OF_FRAMES NUMBER_OF_BYTES
  Stream #1:2: Attachment: ttf
      Metadata:
        filename        : OpenSans-Semibold.ttf
        mimetype        : application/x-truetype-font
Stream mapping:
  Stream #0:0 (hevc) -> settb:default
  Stream #1:0 (h264) -> settb:default
  ssim:default -> Stream #0:0 (wrapped_avframe)
  Stream #0:1 -> #0:1 (aac (native) -> pcm_s16le (native))
[swscaler @ 0000028ceb5bc4c0] No accelerated colorspace conversion found from yuv420p to bgr48le.
[swscaler @ 0000028ceb789380] No accelerated colorspace conversion found from yuv420p to bgr48le.
[swscaler @ 0000028ceb846480] No accelerated colorspace conversion found from yuv420p to bgr48le.
[swscaler @ 0000028ceb9ac040] No accelerated colorspace conversion found from yuv420p to bgr48le.
[swscaler @ 0000028cebb0ed00] No accelerated colorspace conversion found from yuv420p to bgr48le.
[swscaler @ 0000028cebc3f7c0] No accelerated colorspace conversion found from yuv420p to bgr48le.
[swscaler @ 0000028cebda6680] No accelerated colorspace conversion found from yuv420p to bgr48le.
[swscaler @ 0000028cebe608c0] No accelerated colorspace conversion found from yuv420p to bgr48le.
[swscaler @ 0000028cebf687c0] No accelerated colorspace conversion found from yuv420p to bgr48le.
[swscaler @ 0000028cebfc6040] No accelerated colorspace conversion found from yuv420p to bgr48le.
[swscaler @ 0000028cec023040] No accelerated colorspace conversion found from yuv420p to bgr48le.
[swscaler @ 0000028cec0a1840] No accelerated colorspace conversion found from yuv420p to bgr48le.
[swscaler @ 0000028cec10f040] No accelerated colorspace conversion found from yuv420p to bgr48le.
[swscaler @ 0000028cf06e9040] No accelerated colorspace conversion found from yuv420p to bgr48le.
[swscaler @ 0000028cf0766040] No accelerated colorspace conversion found from yuv420p to bgr48le.
[swscaler @ 0000028cf07d1040] No accelerated colorspace conversion found from yuv420p to bgr48le.
Output #0, null, to 'pipe:':
  Metadata:
    encoder         : Lavf61.7.100
  Stream #0:0: Video: wrapped_avframe, yuv420p10le(tv, bt709, progressive), 1280x720 [SAR 1:1 DAR 16:9], q=2-31, 200 kb/s, 23.98 fps, 23.98 tbn
      Metadata:
        encoder         : Lavc61.19.100 wrapped_avframe
  Stream #0:1(rus): Audio: pcm_s16le, 48000 Hz, stereo, s16, 1536 kb/s (default)
      Metadata:
        title           : nDrOiDze & Lianna
        _STATISTICS_TAGS: BPS DURATION NUMBER_OF_FRAMES NUMBER_OF_BYTES
        BPS             : 194547
        DURATION        : 00:23:40.032000000
        NUMBER_OF_FRAMES: 66562
        NUMBER_OF_BYTES : 34532948
        _STATISTICS_WRITING_APP: mkvpropedit v66.0.0 ('Josie') 64-bit
        _STATISTICS_WRITING_DATE_UTC: 2025-07-14 08:51:53
        encoder         : Lavc61.19.100 pcm_s16le
frame=   85 fps=0.0 q=-0.0 size=N/A time=00:00:03.54 bitrate=N/A speed=6.79x    frame=  182 fps=177 q=-0.0 size=N/A time=00:00:07.59 bitrate=N/A speed=7.37x    frame=  286 fps=184 q=-0.0 size=N/A time=00:00:11.92 bitrate=N/A speed= 7.7x    frame=  387 fps=187 q=-0.0 size=N/A time=00:00:16.14 bitrate=N/A speed= 7.8x    frame=  481 fps=186 q=-0.0 size=N/A time=00:00:20.06 bitrate=N/A speed=7.77x    frame=  580 fps=187 q=-0.0 size=N/A time=00:00:24.19 bitrate=N/A speed= 7.8x    frame=  678 fps=188 q=-0.0 size=N/A time=00:00:28.27 bitrate=N/A speed=7.83x    frame=  768 fps=186 q=-0.0 size=N/A time=00:00:32.03 bitrate=N/A speed=7.76x    frame=  879 fps=189 q=-0.0 size=N/A time=00:00:36.66 bitrate=N/A speed=7.89x    frame=  976 fps=189 q=-0.0 size=N/A time=00:00:40.70 bitrate=N/A speed=7.89x    frame= 1072 fps=189 q=-0.0 size=N/A time=00:00:44.71 bitrate=N/A speed=7.89x    frame= 1176 fps=190 q=-0.0 size=N/A time=00:00:49.04 bitrate=N/A speed=7.92x    frame= 1278 fps=190 q=-0.0 size=N/A time=00:00:53.30 bitrate=N/A speed=7.94x    frame= 1369 fps=190 q=-0.0 size=N/A time=00:00:57.09 bitrate=N/A speed=7.91x    frame= 1474 fps=190 q=-0.0 size=N/A time=00:01:01.47 bitrate=N/A speed=7.94x    frame= 1575 fps=191 q=-0.0 size=N/A time=00:01:05.69 bitrate=N/A speed=7.96x    frame= 1676 fps=191 q=-0.0 size=N/A time=00:01:09.90 bitrate=N/A speed=7.97x    frame= 1768 fps=190 q=-0.0 size=N/A time=00:01:13.74 bitrate=N/A speed=7.94x    frame= 1875 fps=191 q=-0.0 size=N/A time=00:01:18.20 bitrate=N/A speed=7.97x    frame= 1972 fps=191 q=-0.0 size=N/A time=00:01:22.24 bitrate=N/A speed=7.97x    frame= 2072 fps=191 q=-0.0 size=N/A time=00:01:26.41 bitrate=N/A speed=7.98x    frame= 2174 fps=192 q=-0.0 size=N/A time=00:01:30.67 bitrate=N/A speed=7.99x    frame= 2272 fps=192 q=-0.0 size=N/A time=00:01:34.76 bitrate=N/A speed=7.99x    frame= 2372 fps=192 q=-0.0 size=N/A time=00:01:38.93 bitrate=N/A speed=7.99x    frame= 2468 fps=191 q=-0.0 size=N/A time=00:01:42.93 bitrate=N/A speed=7.99x    frame= 2568 fps=192 q=-0.0 size=N/A time=00:01:47.10 bitrate=N/A speed=7.99x    frame= 2660 fps=191 q=-0.0 size=N/A time=00:01:50.94 bitrate=N/A speed=7.96x    frame= 2768 fps=192 q=-0.0 size=N/A time=00:01:55.44 bitrate=N/A speed=   8x    frame= 2870 fps=192 q=-0.0 size=N/A time=00:01:59.70 bitrate=N/A speed=   8x    frame= 2967 fps=192 q=-0.0 size=N/A time=00:02:03.74 bitrate=N/A speed=   8x    frame= 3069 fps=192 q=-0.0 size=N/A time=00:02:08.00 bitrate=N/A speed=   8x    frame= 3171 fps=192 q=-0.0 size=N/A time=00:02:12.25 bitrate=N/A speed=8.01x    frame= 3270 fps=192 q=-0.0 size=N/A time=00:02:16.38 bitrate=N/A speed=8.01x    frame= 3369 fps=192 q=-0.0 size=N/A time=00:02:20.51 bitrate=N/A speed=8.01x    frame= 3463 fps=192 q=-0.0 size=N/A time=00:02:24.43 bitrate=N/A speed=   8x    frame= 3567 fps=192 q=-0.0 size=N/A time=00:02:28.77 bitrate=N/A speed=8.01x    frame= 3662 fps=192 q=-0.0 size=N/A time=00:02:32.73 bitrate=N/A speed=   8x    frame= 3754 fps=192 q=-0.0 size=N/A time=00:02:36.57 bitrate=N/A speed=7.99x    frame= 3861 fps=192 q=-0.0 size=N/A time=00:02:41.03 bitrate=N/A speed=8.01x    frame= 3955 fps=192 q=-0.0 size=N/A time=00:02:44.95 bitrate=N/A speed=   8x    frame= 4055 fps=192 q=-0.0 size=N/A time=00:02:49.12 bitrate=N/A speed=   8x    frame= 4159 fps=192 q=-0.0 size=N/A time=00:02:53.46 bitrate=N/A speed=8.01x    frame= 4261 fps=192 q=-0.0 size=N/A time=00:02:57.71 bitrate=N/A speed=8.01x    frame= 4356 fps=192 q=-0.0 size=N/A time=00:03:01.68 bitrate=N/A speed=8.01x    frame= 4463 fps=192 q=-0.0 size=N/A time=00:03:06.14 bitrate=N/A speed=8.02x    frame= 4561 fps=192 q=-0.0 size=N/A time=00:03:10.23 bitrate=N/A speed=8.02x    frame= 4659 fps=192 q=-0.0 size=N/A time=00:03:14.31 bitrate=N/A speed=8.02x    frame= 4761 fps=192 q=-0.0 size=N/A time=00:03:18.57 bitrate=N/A speed=8.02x    frame= 4845 fps=192 q=-0.0 size=N/A time=00:03:22.07 bitrate=N/A speed=7.99x    frame= 4957 fps=192 q=-0.0 size=N/A time=00:03:26.74 bitrate=N/A speed=8.02x    frame= 5055 fps=192 q=-0.0 size=N/A time=00:03:30.83 bitrate=N/A speed=8.02x    frame= 5155 fps=192 q=-0.0 size=N/A time=00:03:35.00 bitrate=N/A speed=8.02x    frame= 5255 fps=192 q=-0.0 size=N/A time=00:03:39.17 bitrate=N/A speed=8.02x    frame= 5351 fps=192 q=-0.0 size=N/A time=00:03:43.18 bitrate=N/A speed=8.02x    frame= 5463 fps=193 q=-0.0 size=N/A time=00:03:47.85 bitrate=N/A speed=8.03x    frame= 5563 fps=193 q=-0.0 size=N/A time=00:03:52.02 bitrate=N/A speed=8.04x    frame= 5666 fps=193 q=-0.0 size=N/A time=00:03:56.31 bitrate=N/A speed=8.04x    frame= 5762 fps=193 q=-0.0 size=N/A time=00:04:00.32 bitrate=N/A speed=8.04x    frame= 5863 fps=193 q=-0.0 size=N/A time=00:04:04.53 bitrate=N/A speed=8.04x    frame= 5959 fps=193 q=-0.0 size=N/A time=00:04:08.53 bitrate=N/A speed=8.03x    frame= 6048 fps=192 q=-0.0 size=N/A time=00:04:12.25 bitrate=N/A speed=8.02x    frame= 6156 fps=193 q=-0.0 size=N/A time=00:04:16.75 bitrate=N/A speed=8.03x    frame= 6261 fps=193 q=-0.0 size=N/A time=00:04:21.13 bitrate=N/A speed=8.04x    frame= 6361 fps=193 q=-0.0 size=N/A time=00:04:25.30 bitrate=N/A speed=8.04x    frame= 6468 fps=193 q=-0.0 size=N/A time=00:04:29.76 bitrate=N/A speed=8.04x    frame= 6570 fps=193 q=-0.0 size=N/A time=00:04:34.02 bitrate=N/A speed=8.05x    frame= 6674 fps=193 q=-0.0 size=N/A time=00:04:38.36 bitrate=N/A speed=8.05x    frame= 6775 fps=193 q=-0.0 size=N/A time=00:04:42.57 bitrate=N/A speed=8.05x    frame= 6872 fps=193 q=-0.0 size=N/A time=00:04:46.61 bitrate=N/A speed=8.05x    frame= 6975 fps=193 q=-0.0 size=N/A time=00:04:50.91 bitrate=N/A speed=8.05x    frame= 7077 fps=193 q=-0.0 size=N/A time=00:04:55.16 bitrate=N/A speed=8.05x    frame= 7176 fps=193 q=-0.0 size=N/A time=00:04:59.29 bitrate=N/A speed=8.06x    frame= 7275 fps=193 q=-0.0 size=N/A time=00:05:03.42 bitrate=N/A speed=8.05x    frame= 7383 fps=193 q=-0.0 size=N/A time=00:05:07.93 bitrate=N/A speed=8.06x    frame= 7483 fps=193 q=-0.0 size=N/A time=00:05:12.10 bitrate=N/A speed=8.06x    frame= 7584 fps=193 q=-0.0 size=N/A time=00:05:16.31 bitrate=N/A speed=8.06x    frame= 7686 fps=193 q=-0.0 size=N/A time=00:05:20.57 bitrate=N/A speed=8.07x    frame= 7788 fps=193 q=-0.0 size=N/A time=00:05:24.82 bitrate=N/A speed=8.07x    frame= 7879 fps=193 q=-0.0 size=N/A time=00:05:28.61 bitrate=N/A speed=8.06x    frame= 7989 fps=193 q=-0.0 size=N/A time=00:05:33.20 bitrate=N/A speed=8.07x    frame= 8077 fps=193 q=-0.0 size=N/A time=00:05:36.87 bitrate=N/A speed=8.06x    frame= 8192 fps=194 q=-0.0 size=N/A time=00:05:41.67 bitrate=N/A speed=8.07x    frame= 8292 fps=194 q=-0.0 size=N/A time=00:05:45.84 bitrate=N/A speed=8.07x    frame= 8390 fps=194 q=-0.0 size=N/A time=00:05:49.93 bitrate=N/A speed=8.07x    frame= 8487 fps=194 q=-0.0 size=N/A time=00:05:53.97 bitrate=N/A speed=8.07x    frame= 8585 fps=193 q=-0.0 size=N/A time=00:05:58.06 bitrate=N/A speed=8.07x    frame= 8681 fps=193 q=-0.0 size=N/A time=00:06:02.07 bitrate=N/A speed=8.07x    frame= 8779 fps=193 q=-0.0 size=N/A time=00:06:06.15 bitrate=N/A speed=8.06x    frame= 8870 fps=193 q=-0.0 size=N/A time=00:06:09.95 bitrate=N/A speed=8.06x    frame= 8978 fps=193 q=-0.0 size=N/A time=00:06:14.45 bitrate=N/A speed=8.06x    frame= 9077 fps=193 q=-0.0 size=N/A time=00:06:18.58 bitrate=N/A speed=8.06x    frame= 9178 fps=193 q=-0.0 size=N/A time=00:06:22.79 bitrate=N/A speed=8.06x    frame= 9273 fps=193 q=-0.0 size=N/A time=00:06:26.76 bitrate=N/A speed=8.06x    frame= 9380 fps=193 q=-0.0 size=N/A time=00:06:31.22 bitrate=N/A speed=8.07x    frame= 9480 fps=193 q=-0.0 size=N/A time=00:06:35.39 bitrate=N/A speed=8.07x    frame= 9584 fps=193 q=-0.0 size=N/A time=00:06:39.73 bitrate=N/A speed=8.07x    frame= 9679 fps=193 q=-0.0 size=N/A time=00:06:43.69 bitrate=N/A speed=8.07x    frame= 9784 fps=193 q=-0.0 size=N/A time=00:06:48.07 bitrate=N/A speed=8.07x    frame= 9881 fps=193 q=-0.0 size=N/A time=00:06:52.12 bitrate=N/A speed=8.07x    frame= 9981 fps=193 q=-0.0 size=N/A time=00:06:56.29 bitrate=N/A speed=8.07x    frame=10080 fps=193 q=-0.0 size=N/A time=00:07:00.42 bitrate=N/A speed=8.07x    frame=10184 fps=193 q=-0.0 size=N/A time=00:07:04.75 bitrate=N/A speed=8.07x    frame=10280 fps=193 q=-0.0 size=N/A time=00:07:08.76 bitrate=N/A speed=8.07x    frame=10381 fps=193 q=-0.0 size=N/A time=00:07:12.97 bitrate=N/A speed=8.07x    frame=10481 fps=193 q=-0.0 size=N/A time=00:07:17.14 bitrate=N/A speed=8.07x    frame=10583 fps=193 q=-0.0 size=N/A time=00:07:21.39 bitrate=N/A speed=8.07x    frame=10684 fps=194 q=-0.0 size=N/A time=00:07:25.61 bitrate=N/A speed=8.07x    frame=10783 fps=193 q=-0.0 size=N/A time=00:07:29.74 bitrate=N/A speed=8.07x    frame=10880 fps=193 q=-0.0 size=N/A time=00:07:33.78 bitrate=N/A speed=8.07x    frame=10983 fps=194 q=-0.0 size=N/A time=00:07:38.08 bitrate=N/A speed=8.07x    frame=11075 fps=193 q=-0.0 size=N/A time=00:07:41.91 bitrate=N/A speed=8.07x    frame=11185 fps=194 q=-0.0 size=N/A time=00:07:46.50 bitrate=N/A speed=8.07x    frame=11275 fps=193 q=-0.0 size=N/A time=00:07:50.26 bitrate=N/A speed=8.07x    frame=11382 fps=194 q=-0.0 size=N/A time=00:07:54.72 bitrate=N/A speed=8.07x    frame=11479 fps=193 q=-0.0 size=N/A time=00:07:58.76 bitrate=N/A speed=8.07x    frame=11566 fps=193 q=-0.0 size=N/A time=00:08:02.39 bitrate=N/A speed=8.06x    frame=11673 fps=193 q=-0.0 size=N/A time=00:08:06.86 bitrate=N/A speed=8.07x    frame=11778 fps=193 q=-0.0 size=N/A time=00:08:11.24 bitrate=N/A speed=8.07x    frame=11877 fps=193 q=-0.0 size=N/A time=00:08:15.36 bitrate=N/A speed=8.07x    frame=11979 fps=193 q=-0.0 size=N/A time=00:08:19.62 bitrate=N/A speed=8.07x    frame=12079 fps=193 q=-0.0 size=N/A time=00:08:23.79 bitrate=N/A speed=8.07x    frame=12179 fps=193 q=-0.0 size=N/A time=00:08:27.96 bitrate=N/A speed=8.07x    frame=12266 fps=193 q=-0.0 size=N/A time=00:08:31.59 bitrate=N/A speed=8.06x    frame=12380 fps=194 q=-0.0 size=N/A time=00:08:36.34 bitrate=N/A speed=8.07x    frame=12477 fps=193 q=-0.0 size=N/A time=00:08:40.39 bitrate=N/A speed=8.07x    frame=12578 fps=193 q=-0.0 size=N/A time=00:08:44.60 bitrate=N/A speed=8.07x    frame=12662 fps=193 q=-0.0 size=N/A time=00:08:48.11 bitrate=N/A speed=8.06x    frame=12776 fps=193 q=-0.0 size=N/A time=00:08:52.86 bitrate=N/A speed=8.07x    frame=12866 fps=193 q=-0.0 size=N/A time=00:08:56.61 bitrate=N/A speed=8.06x    frame=12981 fps=194 q=-0.0 size=N/A time=00:09:01.41 bitrate=N/A speed=8.07x    frame=13076 fps=193 q=-0.0 size=N/A time=00:09:05.37 bitrate=N/A speed=8.07x    frame=13177 fps=193 q=-0.0 size=N/A time=00:09:09.59 bitrate=N/A speed=8.07x    frame=13276 fps=194 q=-0.0 size=N/A time=00:09:13.71 bitrate=N/A speed=8.07x    frame=13378 fps=194 q=-0.0 size=N/A time=00:09:17.97 bitrate=N/A speed=8.07x    frame=13479 fps=194 q=-0.0 size=N/A time=00:09:22.18 bitrate=N/A speed=8.07x    frame=13578 fps=194 q=-0.0 size=N/A time=00:09:26.31 bitrate=N/A speed=8.07x    frame=13670 fps=193 q=-0.0 size=N/A time=00:09:30.15 bitrate=N/A speed=8.07x    frame=13774 fps=193 q=-0.0 size=N/A time=00:09:34.49 bitrate=N/A speed=8.07x    frame=13881 fps=194 q=-0.0 size=N/A time=00:09:38.95 bitrate=N/A speed=8.07x    frame=13974 fps=193 q=-0.0 size=N/A time=00:09:42.83 bitrate=N/A speed=8.07x    frame=14089 fps=194 q=-0.0 size=N/A time=00:09:47.62 bitrate=N/A speed=8.08x    frame=14188 fps=194 q=-0.0 size=N/A time=00:09:51.75 bitrate=N/A speed=8.08x    frame=14291 fps=194 q=-0.0 size=N/A time=00:09:56.05 bitrate=N/A speed=8.08x    frame=14388 fps=194 q=-0.0 size=N/A time=00:10:00.09 bitrate=N/A speed=8.08x    frame=14492 fps=194 q=-0.0 size=N/A time=00:10:04.43 bitrate=N/A speed=8.08x    frame=14597 fps=194 q=-0.0 size=N/A time=00:10:08.81 bitrate=N/A speed=8.08x    frame=14701 fps=194 q=-0.0 size=N/A time=00:10:13.15 bitrate=N/A speed=8.09x    frame=14804 fps=194 q=-0.0 size=N/A time=00:10:17.45 bitrate=N/A speed=8.09x    frame=14899 fps=194 q=-0.0 size=N/A time=00:10:21.41 bitrate=N/A speed=8.08x    frame=15000 fps=194 q=-0.0 size=N/A time=00:10:25.62 bitrate=N/A speed=8.08x    frame=15103 fps=194 q=-0.0 size=N/A time=00:10:29.92 bitrate=N/A speed=8.09x    frame=15206 fps=194 q=-0.0 size=N/A time=00:10:34.21 bitrate=N/A speed=8.09x    frame=15303 fps=194 q=-0.0 size=N/A time=00:10:38.26 bitrate=N/A speed=8.09x    frame=15407 fps=194 q=-0.0 size=N/A time=00:10:42.60 bitrate=N/A speed=8.09x    frame=15506 fps=194 q=-0.0 size=N/A time=00:10:46.72 bitrate=N/A speed=8.09x    frame=15605 fps=194 q=-0.0 size=N/A time=00:10:50.85 bitrate=N/A speed=8.09x    frame=15710 fps=194 q=-0.0 size=N/A time=00:10:55.23 bitrate=N/A speed=8.09x    frame=15805 fps=194 q=-0.0 size=N/A time=00:10:59.20 bitrate=N/A speed=8.09x    frame=15911 fps=194 q=-0.0 size=N/A time=00:11:03.62 bitrate=N/A speed=8.09x    frame=16006 fps=194 q=-0.0 size=N/A time=00:11:07.58 bitrate=N/A speed=8.09x    frame=16109 fps=194 q=-0.0 size=N/A time=00:11:11.87 bitrate=N/A speed=8.09x    frame=16213 fps=194 q=-0.0 size=N/A time=00:11:16.21 bitrate=N/A speed=8.09x    frame=16308 fps=194 q=-0.0 size=N/A time=00:11:20.17 bitrate=N/A speed=8.09x    frame=16404 fps=194 q=-0.0 size=N/A time=00:11:24.18 bitrate=N/A speed=8.09x    frame=16510 fps=194 q=-0.0 size=N/A time=00:11:28.60 bitrate=N/A speed=8.09x    frame=16615 fps=194 q=-0.0 size=N/A time=00:11:32.98 bitrate=N/A speed=8.09x    frame=16713 fps=194 q=-0.0 size=N/A time=00:11:37.07 bitrate=N/A speed=8.09x    frame=16817 fps=194 q=-0.0 size=N/A time=00:11:41.40 bitrate=N/A speed=8.09x    frame=16919 fps=194 q=-0.0 size=N/A time=00:11:45.66 bitrate=N/A speed=8.09x    frame=17018 fps=194 q=-0.0 size=N/A time=00:11:49.79 bitrate=N/A speed=8.09x    frame=17111 fps=194 q=-0.0 size=N/A time=00:11:53.67 bitrate=N/A speed=8.09x    frame=17220 fps=194 q=-0.0 size=N/A time=00:11:58.21 bitrate=N/A speed=8.09x    frame=17326 fps=194 q=-0.0 size=N/A time=00:12:02.63 bitrate=N/A speed= 8.1x    frame=17430 fps=194 q=-0.0 size=N/A time=00:12:06.97 bitrate=N/A speed= 8.1x    frame=17533 fps=194 q=-0.0 size=N/A time=00:12:11.27 bitrate=N/A speed= 8.1x    frame=17633 fps=194 q=-0.0 size=N/A time=00:12:15.44 bitrate=N/A speed= 8.1x    frame=17726 fps=194 q=-0.0 size=N/A time=00:12:19.32 bitrate=N/A speed= 8.1x    frame=17822 fps=194 q=-0.0 size=N/A time=00:12:23.32 bitrate=N/A speed=8.09x    frame=17934 fps=194 q=-0.0 size=N/A time=00:12:27.99 bitrate=N/A speed= 8.1x    frame=18034 fps=194 q=-0.0 size=N/A time=00:12:32.16 bitrate=N/A speed= 8.1x    frame=18131 fps=194 q=-0.0 size=N/A time=00:12:36.21 bitrate=N/A speed= 8.1x    frame=18237 fps=194 q=-0.0 size=N/A time=00:12:40.63 bitrate=N/A speed= 8.1x    frame=18339 fps=194 q=-0.0 size=N/A time=00:12:44.88 bitrate=N/A speed= 8.1x    frame=18437 fps=194 q=-0.0 size=N/A time=00:12:48.97 bitrate=N/A speed= 8.1x    frame=18539 fps=194 q=-0.0 size=N/A time=00:12:53.23 bitrate=N/A speed= 8.1x    frame=18635 fps=194 q=-0.0 size=N/A time=00:12:57.23 bitrate=N/A speed= 8.1x    frame=18741 fps=194 q=-0.0 size=N/A time=00:13:01.65 bitrate=N/A speed= 8.1x    frame=18839 fps=194 q=-0.0 size=N/A time=00:13:05.74 bitrate=N/A speed= 8.1x    frame=18941 fps=194 q=-0.0 size=N/A time=00:13:09.99 bitrate=N/A speed= 8.1x    frame=19040 fps=194 q=-0.0 size=N/A time=00:13:14.12 bitrate=N/A speed= 8.1x    frame=19144 fps=194 q=-0.0 size=N/A time=00:13:18.46 bitrate=N/A speed= 8.1x    frame=19244 fps=194 q=-0.0 size=N/A time=00:13:22.63 bitrate=N/A speed= 8.1x    frame=19348 fps=194 q=-0.0 size=N/A time=00:13:26.97 bitrate=N/A speed= 8.1x    frame=19440 fps=194 q=-0.0 size=N/A time=00:13:30.81 bitrate=N/A speed= 8.1x    frame=19543 fps=194 q=-0.0 size=N/A time=00:13:35.10 bitrate=N/A speed= 8.1x    frame=19650 fps=194 q=-0.0 size=N/A time=00:13:39.56 bitrate=N/A speed= 8.1x    frame=19748 fps=194 q=-0.0 size=N/A time=00:13:43.65 bitrate=N/A speed= 8.1x    frame=19847 fps=194 q=-0.0 size=N/A time=00:13:47.78 bitrate=N/A speed= 8.1x    frame=19949 fps=194 q=-0.0 size=N/A time=00:13:52.03 bitrate=N/A speed= 8.1x    frame=20052 fps=194 q=-0.0 size=N/A time=00:13:56.33 bitrate=N/A speed=8.11x    frame=20151 fps=194 q=-0.0 size=N/A time=00:14:00.46 bitrate=N/A speed=8.11x    frame=20253 fps=194 q=-0.0 size=N/A time=00:14:04.71 bitrate=N/A speed=8.11x    frame=20355 fps=194 q=-0.0 size=N/A time=00:14:08.97 bitrate=N/A speed=8.11x    frame=20451 fps=194 q=-0.0 size=N/A time=00:14:12.97 bitrate=N/A speed= 8.1x    frame=20545 fps=194 q=-0.0 size=N/A time=00:14:16.89 bitrate=N/A speed= 8.1x    frame=20646 fps=194 q=-0.0 size=N/A time=00:14:21.11 bitrate=N/A speed= 8.1x    frame=20746 fps=194 q=-0.0 size=N/A time=00:14:25.28 bitrate=N/A speed= 8.1x    frame=20848 fps=194 q=-0.0 size=N/A time=00:14:29.53 bitrate=N/A speed= 8.1x    frame=20950 fps=194 q=-0.0 size=N/A time=00:14:33.78 bitrate=N/A speed= 8.1x    frame=21047 fps=194 q=-0.0 size=N/A time=00:14:37.83 bitrate=N/A speed= 8.1x    frame=21148 fps=194 q=-0.0 size=N/A time=00:14:42.04 bitrate=N/A speed= 8.1x    frame=21247 fps=194 q=-0.0 size=N/A time=00:14:46.17 bitrate=N/A speed= 8.1x    frame=21341 fps=194 q=-0.0 size=N/A time=00:14:50.09 bitrate=N/A speed= 8.1x    frame=21445 fps=194 q=-0.0 size=N/A time=00:14:54.43 bitrate=N/A speed= 8.1x    frame=21545 fps=194 q=-0.0 size=N/A time=00:14:58.60 bitrate=N/A speed= 8.1x    frame=21642 fps=194 q=-0.0 size=N/A time=00:15:02.65 bitrate=N/A speed= 8.1x    frame=21746 fps=194 q=-0.0 size=N/A time=00:15:06.98 bitrate=N/A speed= 8.1x    frame=21837 fps=194 q=-0.0 size=N/A time=00:15:10.78 bitrate=N/A speed= 8.1x    frame=21952 fps=194 q=-0.0 size=N/A time=00:15:15.58 bitrate=N/A speed= 8.1x    frame=22056 fps=194 q=-0.0 size=N/A time=00:15:19.91 bitrate=N/A speed= 8.1x    frame=22156 fps=194 q=-0.0 size=N/A time=00:15:24.08 bitrate=N/A speed= 8.1x    frame=22252 fps=194 q=-0.0 size=N/A time=00:15:28.09 bitrate=N/A speed= 8.1x    frame=22357 fps=194 q=-0.0 size=N/A time=00:15:32.47 bitrate=N/A speed= 8.1x    frame=22454 fps=194 q=-0.0 size=N/A time=00:15:36.51 bitrate=N/A speed= 8.1x    frame=22545 fps=194 q=-0.0 size=N/A time=00:15:40.31 bitrate=N/A speed= 8.1x    frame=22652 fps=194 q=-0.0 size=N/A time=00:15:44.77 bitrate=N/A speed= 8.1x    frame=22763 fps=194 q=-0.0 size=N/A time=00:15:49.40 bitrate=N/A speed=8.11x    frame=22867 fps=194 q=-0.0 size=N/A time=00:15:53.74 bitrate=N/A speed=8.11x    frame=22966 fps=194 q=-0.0 size=N/A time=00:15:57.87 bitrate=N/A speed=8.11x    frame=23057 fps=194 q=-0.0 size=N/A time=00:16:01.66 bitrate=N/A speed= 8.1x    frame=23160 fps=194 q=-0.0 size=N/A time=00:16:05.96 bitrate=N/A speed= 8.1x    frame=23268 fps=194 q=-0.0 size=N/A time=00:16:10.46 bitrate=N/A speed=8.11x    frame=23368 fps=194 q=-0.0 size=N/A time=00:16:14.64 bitrate=N/A speed=8.11x    frame=23464 fps=194 q=-0.0 size=N/A time=00:16:18.64 bitrate=N/A speed= 8.1x    frame=23570 fps=194 q=-0.0 size=N/A time=00:16:23.06 bitrate=N/A speed=8.11x    frame=23668 fps=194 q=-0.0 size=N/A time=00:16:27.15 bitrate=N/A speed=8.11x    frame=23770 fps=194 q=-0.0 size=N/A time=00:16:31.40 bitrate=N/A speed=8.11x    frame=23870 fps=194 q=-0.0 size=N/A time=00:16:35.57 bitrate=N/A speed=8.11x    frame=23972 fps=194 q=-0.0 size=N/A time=00:16:39.83 bitrate=N/A speed=8.11x    frame=24072 fps=194 q=-0.0 size=N/A time=00:16:44.00 bitrate=N/A speed=8.11x    frame=24173 fps=194 q=-0.0 size=N/A time=00:16:48.21 bitrate=N/A speed=8.11x    frame=24268 fps=194 q=-0.0 size=N/A time=00:16:52.17 bitrate=N/A speed=8.11x    frame=24374 fps=194 q=-0.0 size=N/A time=00:16:56.59 bitrate=N/A speed=8.11x    frame=24472 fps=194 q=-0.0 size=N/A time=00:17:00.68 bitrate=N/A speed=8.11x    frame=24574 fps=194 q=-0.0 size=N/A time=00:17:04.94 bitrate=N/A speed=8.11x    frame=24676 fps=194 q=-0.0 size=N/A time=00:17:09.19 bitrate=N/A speed=8.11x    frame=24772 fps=194 q=-0.0 size=N/A time=00:17:13.19 bitrate=N/A speed=8.11x    frame=24880 fps=194 q=-0.0 size=N/A time=00:17:17.70 bitrate=N/A speed=8.11x    frame=24980 fps=194 q=-0.0 size=N/A time=00:17:21.87 bitrate=N/A speed=8.11x    frame=25083 fps=194 q=-0.0 size=N/A time=00:17:26.17 bitrate=N/A speed=8.11x    frame=25184 fps=194 q=-0.0 size=N/A time=00:17:30.38 bitrate=N/A speed=8.11x    frame=25278 fps=194 q=-0.0 size=N/A time=00:17:34.30 bitrate=N/A speed=8.11x    frame=25385 fps=194 q=-0.0 size=N/A time=00:17:38.76 bitrate=N/A speed=8.11x    frame=25484 fps=194 q=-0.0 size=N/A time=00:17:42.89 bitrate=N/A speed=8.11x    frame=25584 fps=194 q=-0.0 size=N/A time=00:17:47.06 bitrate=N/A speed=8.11x    frame=25682 fps=194 q=-0.0 size=N/A time=00:17:51.15 bitrate=N/A speed=8.11x    frame=25773 fps=194 q=-0.0 size=N/A time=00:17:54.94 bitrate=N/A speed= 8.1x    frame=25884 fps=194 q=-0.0 size=N/A time=00:17:59.57 bitrate=N/A speed=8.11x    frame=25985 fps=194 q=-0.0 size=N/A time=00:18:03.79 bitrate=N/A speed=8.11x    frame=26083 fps=194 q=-0.0 size=N/A time=00:18:07.87 bitrate=N/A speed=8.11x    frame=26185 fps=194 q=-0.0 size=N/A time=00:18:12.13 bitrate=N/A speed=8.11x    frame=26280 fps=194 q=-0.0 size=N/A time=00:18:16.09 bitrate=N/A speed=8.11x    frame=26379 fps=194 q=-0.0 size=N/A time=00:18:20.22 bitrate=N/A speed=8.11x    frame=26477 fps=194 q=-0.0 size=N/A time=00:18:24.31 bitrate=N/A speed=8.11x    frame=26580 fps=194 q=-0.0 size=N/A time=00:18:28.60 bitrate=N/A speed=8.11x    frame=26671 fps=194 q=-0.0 size=N/A time=00:18:32.40 bitrate=N/A speed= 8.1x    frame=26779 fps=194 q=-0.0 size=N/A time=00:18:36.90 bitrate=N/A speed=8.11x    frame=26879 fps=194 q=-0.0 size=N/A time=00:18:41.07 bitrate=N/A speed=8.11x    frame=26982 fps=194 q=-0.0 size=N/A time=00:18:45.37 bitrate=N/A speed=8.11x    frame=27080 fps=194 q=-0.0 size=N/A time=00:18:49.46 bitrate=N/A speed=8.11x    frame=27179 fps=194 q=-0.0 size=N/A time=00:18:53.59 bitrate=N/A speed= 8.1x    frame=27278 fps=194 q=-0.0 size=N/A time=00:18:57.71 bitrate=N/A speed= 8.1x    frame=27369 fps=194 q=-0.0 size=N/A time=00:19:01.51 bitrate=N/A speed= 8.1x    frame=27484 fps=194 q=-0.0 size=N/A time=00:19:06.31 bitrate=N/A speed=8.11x    frame=27577 fps=194 q=-0.0 size=N/A time=00:19:10.19 bitrate=N/A speed= 8.1x    frame=27678 fps=194 q=-0.0 size=N/A time=00:19:14.40 bitrate=N/A speed= 8.1x    frame=27780 fps=194 q=-0.0 size=N/A time=00:19:18.65 bitrate=N/A speed= 8.1x    frame=27881 fps=194 q=-0.0 size=N/A time=00:19:22.87 bitrate=N/A speed=8.11x    frame=27982 fps=194 q=-0.0 size=N/A time=00:19:27.08 bitrate=N/A speed=8.11x    frame=28078 fps=194 q=-0.0 size=N/A time=00:19:31.08 bitrate=N/A speed= 8.1x    frame=28183 fps=194 q=-0.0 size=N/A time=00:19:35.46 bitrate=N/A speed=8.11x    frame=28273 fps=194 q=-0.0 size=N/A time=00:19:39.21 bitrate=N/A speed= 8.1x    frame=28383 fps=194 q=-0.0 size=N/A time=00:19:43.80 bitrate=N/A speed=8.11x    frame=28484 fps=194 q=-0.0 size=N/A time=00:19:48.02 bitrate=N/A speed=8.11x    frame=28583 fps=194 q=-0.0 size=N/A time=00:19:52.14 bitrate=N/A speed=8.11x    frame=28671 fps=194 q=-0.0 size=N/A time=00:19:55.81 bitrate=N/A speed= 8.1x    frame=28787 fps=194 q=-0.0 size=N/A time=00:20:00.65 bitrate=N/A speed=8.11x    frame=28885 fps=194 q=-0.0 size=N/A time=00:20:04.74 bitrate=N/A speed=8.11x    frame=28977 fps=194 q=-0.0 size=N/A time=00:20:08.58 bitrate=N/A speed= 8.1x    frame=29090 fps=194 q=-0.0 size=N/A time=00:20:13.29 bitrate=N/A speed=8.11x    frame=29192 fps=194 q=-0.0 size=N/A time=00:20:17.54 bitrate=N/A speed=8.11x    frame=29291 fps=194 q=-0.0 size=N/A time=00:20:21.67 bitrate=N/A speed=8.11x    frame=29387 fps=194 q=-0.0 size=N/A time=00:20:25.68 bitrate=N/A speed=8.11x    frame=29488 fps=194 q=-0.0 size=N/A time=00:20:29.89 bitrate=N/A speed=8.11x    frame=29588 fps=194 q=-0.0 size=N/A time=00:20:34.06 bitrate=N/A speed=8.11x    frame=29687 fps=194 q=-0.0 size=N/A time=00:20:38.19 bitrate=N/A speed=8.11x    frame=29792 fps=194 q=-0.0 size=N/A time=00:20:42.57 bitrate=N/A speed=8.11x    frame=29892 fps=194 q=-0.0 size=N/A time=00:20:46.74 bitrate=N/A speed=8.11x    frame=29992 fps=194 q=-0.0 size=N/A time=00:20:50.91 bitrate=N/A speed=8.11x    frame=30094 fps=194 q=-0.0 size=N/A time=00:20:55.17 bitrate=N/A speed=8.11x    frame=30196 fps=194 q=-0.0 size=N/A time=00:20:59.42 bitrate=N/A speed=8.11x    frame=30295 fps=194 q=-0.0 size=N/A time=00:21:03.55 bitrate=N/A speed=8.11x    frame=30383 fps=194 q=-0.0 size=N/A time=00:21:07.22 bitrate=N/A speed= 8.1x    frame=30497 fps=194 q=-0.0 size=N/A time=00:21:11.97 bitrate=N/A speed=8.11x    frame=30605 fps=194 q=-0.0 size=N/A time=00:21:16.48 bitrate=N/A speed=8.11x    frame=30708 fps=194 q=-0.0 size=N/A time=00:21:20.77 bitrate=N/A speed=8.11x    frame=30806 fps=194 q=-0.0 size=N/A time=00:21:24.86 bitrate=N/A speed=8.11x    frame=30904 fps=194 q=-0.0 size=N/A time=00:21:28.95 bitrate=N/A speed=8.11x    frame=31013 fps=194 q=-0.0 size=N/A time=00:21:33.50 bitrate=N/A speed=8.11x    frame=31114 fps=194 q=-0.0 size=N/A time=00:21:37.71 bitrate=N/A speed=8.11x    frame=31210 fps=194 q=-0.0 size=N/A time=00:21:41.71 bitrate=N/A speed=8.11x    frame=31310 fps=194 q=-0.0 size=N/A time=00:21:45.88 bitrate=N/A speed=8.11x    frame=31425 fps=195 q=-0.0 size=N/A time=00:21:50.68 bitrate=N/A speed=8.11x    frame=31527 fps=195 q=-0.0 size=N/A time=00:21:54.93 bitrate=N/A speed=8.11x    frame=31624 fps=195 q=-0.0 size=N/A time=00:21:58.98 bitrate=N/A speed=8.11x    frame=31732 fps=195 q=-0.0 size=N/A time=00:22:03.48 bitrate=N/A speed=8.12x    frame=31833 fps=195 q=-0.0 size=N/A time=00:22:07.70 bitrate=N/A speed=8.12x    frame=31935 fps=195 q=-0.0 size=N/A time=00:22:11.95 bitrate=N/A speed=8.12x    frame=32032 fps=195 q=-0.0 size=N/A time=00:22:16.00 bitrate=N/A speed=8.12x    frame=32129 fps=195 q=-0.0 size=N/A time=00:22:20.04 bitrate=N/A speed=8.11x    frame=32226 fps=195 q=-0.0 size=N/A time=00:22:24.09 bitrate=N/A speed=8.11x    frame=32309 fps=194 q=-0.0 size=N/A time=00:22:27.55 bitrate=N/A speed=8.11x    frame=32419 fps=194 q=-0.0 size=N/A time=00:22:32.14 bitrate=N/A speed=8.11x    frame=32515 fps=194 q=-0.0 size=N/A time=00:22:36.14 bitrate=N/A speed=8.11x    frame=32607 fps=194 q=-0.0 size=N/A time=00:22:39.98 bitrate=N/A speed=8.11x    frame=32708 fps=194 q=-0.0 size=N/A time=00:22:44.19 bitrate=N/A speed=8.11x    frame=32807 fps=194 q=-0.0 size=N/A time=00:22:48.32 bitrate=N/A speed=8.11x    frame=32899 fps=194 q=-0.0 size=N/A time=00:22:52.16 bitrate=N/A speed=8.11x    frame=33003 fps=194 q=-0.0 size=N/A time=00:22:56.50 bitrate=N/A speed=8.11x    frame=33101 fps=194 q=-0.0 size=N/A time=00:23:00.58 bitrate=N/A speed=8.11x    frame=33195 fps=194 q=-0.0 size=N/A time=00:23:04.50 bitrate=N/A speed=8.11x    frame=33296 fps=194 q=-0.0 size=N/A time=00:23:08.72 bitrate=N/A speed=8.11x    frame=33391 fps=194 q=-0.0 size=N/A time=00:23:12.68 bitrate=N/A speed= 8.1x    frame=33491 fps=194 q=-0.0 size=N/A time=00:23:16.85 bitrate=N/A speed= 8.1x    frame=33588 fps=194 q=-0.0 size=N/A time=00:23:20.89 bitrate=N/A speed= 8.1x    frame=33686 fps=194 q=-0.0 size=N/A time=00:23:24.98 bitrate=N/A speed= 8.1x    frame=33782 fps=194 q=-0.0 size=N/A time=00:23:28.99 bitrate=N/A speed= 8.1x    frame=33897 fps=194 q=-0.0 size=N/A time=00:23:33.78 bitrate=N/A speed=8.11x    frame=34003 fps=194 q=-0.0 size=N/A time=00:23:38.20 bitrate=N/A speed=8.11x    [Parsed_ssim_10 @ 0000028cdf873940] SSIM Y:0.990403 (20.178689) U:0.992545 (21.275764) V:0.993087 (21.603055) All:0.991207 (20.558823)
[out#0/null @ 0000028cdf3a3a00] video:14630KiB audio:266248KiB subtitle:0KiB other streams:0KiB global headers:0KiB muxing overhead: unknown
frame=34047 fps=194 q=-0.0 Lsize=N/A time=00:23:40.04 bitrate=N/A speed=8.11x    
